<svg width="128" height="256" viewBox="0 0 128 256" fill="none" xmlns="http://www.w3.org/2000/svg">
<path fill-rule="evenodd" clip-rule="evenodd" d="M57.8709 64.3316C61.9566 65.5645 64.2691 69.8761 63.0361 73.9618L29.1271 186.325C27.8941 190.411 23.5825 192.724 19.4968 191.491C15.4112 190.258 13.0986 185.946 14.3316 181.86L48.2406 69.4968C49.4736 65.4112 53.7852 63.0986 57.8709 64.3316ZM74.9452 77.6971C79.0299 76.4607 83.3434 78.7697 84.5797 82.8543L114.493 181.867C115.722 185.953 113.406 190.263 109.319 191.493C105.232 192.722 100.923 190.406 99.6933 186.319L91.9669 160.638H56.8202C52.5526 160.638 49.0929 157.179 49.0929 152.911C49.0929 148.643 52.5526 145.184 56.8202 145.184H87.2991L69.788 87.3316C68.5516 83.2469 70.8606 78.9334 74.9452 77.6971Z" fill="black"/>
</svg>
