<svg width="128" height="256" viewBox="0 0 128 256" fill="none" xmlns="http://www.w3.org/2000/svg">
<path fill-rule="evenodd" clip-rule="evenodd" d="M24 71.7273C24 67.4596 27.4596 64 31.7273 64H67.5454C75.9716 64 84.8083 66.5505 91.6739 72.3841C98.7251 78.3753 103.091 87.3319 103.091 98.7273C103.091 110.497 97.7168 119.955 90.838 126.344C90.1675 126.967 89.4762 127.566 88.7672 128.141C89.3189 128.549 89.8623 128.975 90.3961 129.421C97.6445 135.474 102.818 144.818 102.818 157.455C102.818 170.325 97.1662 179.386 89.6724 185.01C82.5078 190.387 73.9343 192.455 67.5454 192.455H31.7273C27.4596 192.455 24 188.995 24 184.727C24 180.46 27.4596 177 31.7273 177H67.5454C71.0657 177 76.2649 175.749 80.3957 172.649C84.1974 169.796 87.3636 165.221 87.3636 157.455C87.3636 149.454 84.2646 144.435 80.4903 141.284C76.4691 137.926 71.3706 136.455 67.5454 136.455H39.4545V153.091C39.4545 157.359 35.9949 160.818 31.7273 160.818C27.4596 160.818 24 157.359 24 153.091V128.727C24 124.46 27.4596 121 31.7273 121H67.5454C70.7007 121 75.8532 119.169 80.3211 115.02C84.6014 111.045 87.6364 105.503 87.6364 98.7273C87.6364 91.5772 85.0476 87.0338 81.667 84.1614C78.1008 81.1313 73.0284 79.4545 67.5454 79.4545H39.4545V96.0909C39.4545 100.359 35.9949 103.818 31.7273 103.818C27.4596 103.818 24 100.359 24 96.0909V71.7273Z" fill="black"/>
</svg>
