<svg width="128" height="256" viewBox="0 0 128 256" fill="none" xmlns="http://www.w3.org/2000/svg">
<path fill-rule="evenodd" clip-rule="evenodd" d="M29.2225 78.4641C35.9888 68.9885 47.0648 62 63.8634 62C80.207 62 91.8197 67.8965 99.1654 77.0164C106.275 85.8436 108.682 96.8052 108.682 106C108.682 110.268 105.222 113.727 100.954 113.727C96.6867 113.727 93.2271 110.268 93.2271 106C93.2271 99.1948 91.406 92.0201 87.1296 86.7109C83.089 81.6944 76.1562 77.4545 63.8634 77.4545C52.0257 77.4545 45.6471 82.057 41.7997 87.445C37.6329 93.2803 35.9526 100.782 35.3726 106.748C34.153 119.294 34.1393 135.925 35.3866 152.323C35.9133 159.247 38.4708 165.78 42.9522 170.494C47.3004 175.067 53.9463 178.455 63.8634 178.455C74.0251 178.455 81.2818 175.218 85.949 170.727C90.6344 166.219 93.2271 159.962 93.2271 152.909C93.2271 148.641 96.6867 145.182 100.954 145.182C105.222 145.182 108.682 148.641 108.682 152.909C108.682 163.856 104.592 174.236 96.6642 181.864C88.7178 189.51 77.429 193.909 63.8634 193.909C50.0534 193.909 39.2445 189.024 31.7517 181.143C24.3921 173.402 20.7223 163.299 19.9766 153.495C18.6792 136.439 18.6651 118.888 19.9906 105.252C20.6832 98.1274 22.7757 87.4924 29.2225 78.4641Z" fill="black"/>
</svg>
