<svg width="128" height="256" viewBox="0 0 128 256" fill="none" xmlns="http://www.w3.org/2000/svg">
<path fill-rule="evenodd" clip-rule="evenodd" d="M24 71.7273C24 67.4596 27.4596 64 31.7273 64H67.5454C85.4341 64 101.597 77.4233 103.071 98.1797C104.283 115.234 104.181 134.842 103.081 156.394C102.423 169.278 96.8994 178.498 89.6198 184.384C82.584 190.073 74.1611 192.455 67.5454 192.455H31.7273C27.4596 192.455 24 188.995 24 184.727C24 180.46 27.4596 177 31.7273 177H67.5454C70.8388 177 75.7796 175.7 79.9029 172.366C83.7824 169.229 87.2134 164.086 87.6464 155.606C88.7277 134.431 88.8079 115.494 87.6558 99.2748C86.7666 86.7585 77.475 79.4545 67.5454 79.4545H39.4545V156C39.4545 160.268 35.9949 163.727 31.7273 163.727C27.4596 163.727 24 160.268 24 156V71.7273Z" fill="black"/>
</svg>
