<svg width="128" height="256" viewBox="0 0 128 256" fill="none" xmlns="http://www.w3.org/2000/svg">
<path fill-rule="evenodd" clip-rule="evenodd" d="M26 71.7273C26 67.4596 29.4596 64 33.7273 64H94.9091C99.1767 64 102.636 67.4596 102.636 71.7273C102.636 75.9949 99.1767 79.4545 94.9091 79.4545H41.4545V120.136H94.9091C99.1767 120.136 102.636 123.596 102.636 127.864C102.636 132.131 99.1767 135.591 94.9091 135.591H41.4545V176.273H94.9091C99.1767 176.273 102.636 179.732 102.636 184C102.636 188.268 99.1767 191.727 94.9091 191.727H33.7273C29.4596 191.727 26 188.268 26 184V71.7273Z" fill="black"/>
</svg>
