<svg width="128" height="256" viewBox="0 0 128 256" fill="none" xmlns="http://www.w3.org/2000/svg">
<path fill-rule="evenodd" clip-rule="evenodd" d="M29.232 77.2456C36.0205 67.8551 47.0978 61 63.8466 61C80.1402 61 91.7515 66.769 99.1177 75.7966C106.255 84.5441 108.665 95.4362 108.665 104.636C108.665 108.904 105.205 112.364 100.937 112.364C96.6698 112.364 93.2102 108.904 93.2102 104.636C93.2102 97.8366 91.3923 90.7741 87.1436 85.5671C83.1234 80.6401 76.1893 76.4545 63.8466 76.4545C51.959 76.4545 45.5817 81.0085 41.7565 86.2998C37.6114 92.0338 35.9349 99.4265 35.3558 105.384C34.1392 117.899 34.1619 130.9 35.378 151.081C35.9188 160.053 38.6176 167.172 43.0102 171.956C47.2561 176.58 53.8041 179.818 63.8466 179.818C82.8203 179.818 93.2102 165.78 93.2102 151.545V146.636H66.9375C62.6698 146.636 59.2102 143.177 59.2102 138.909C59.2102 134.641 62.6698 131.182 66.9375 131.182H100.937C105.205 131.182 108.665 134.641 108.665 138.909V185.909C108.665 190.177 105.205 193.636 100.937 193.636C96.6698 193.636 93.2102 190.177 93.2102 185.909V185.113C85.8197 191.323 75.9252 195.273 63.8466 195.273C50.1618 195.273 39.2325 190.692 31.6261 182.408C24.1664 174.283 20.6379 163.401 19.9515 152.01C18.7133 131.464 18.6452 117.555 19.9737 103.889C20.6672 96.7553 22.7635 86.1935 29.232 77.2456Z" fill="black"/>
</svg>
