<svg width="128" height="256" viewBox="0 0 128 256" fill="none" xmlns="http://www.w3.org/2000/svg">
<path fill-rule="evenodd" clip-rule="evenodd" d="M28.7273 64C32.9949 64 36.4545 67.4596 36.4545 71.7273V120.364H90.6364V71.7273C90.6364 67.4596 94.096 64 98.3636 64C102.631 64 106.091 67.4596 106.091 71.7273V184.455C106.091 188.722 102.631 192.182 98.3636 192.182C94.096 192.182 90.6364 188.722 90.6364 184.455V135.818H36.4545V184.455C36.4545 188.722 32.9949 192.182 28.7273 192.182C24.4596 192.182 21 188.722 21 184.455V71.7273C21 67.4596 24.4596 64 28.7273 64Z" fill="black"/>
</svg>
