<svg width="128" height="256" viewBox="0 0 128 256" fill="none" xmlns="http://www.w3.org/2000/svg">
<path fill-rule="evenodd" clip-rule="evenodd" d="M95.2126 62.0003C90.9451 62.0387 87.5167 65.5292 87.555 69.7967L95.2412 69.7276C87.555 69.7967 87.555 69.7967 87.555 69.7967L87.5564 69.9569C87.5574 70.0633 87.5587 70.2218 87.5605 70.4297C87.5641 70.8456 87.5692 71.459 87.5756 72.2484C87.5884 73.8271 87.6061 76.1096 87.6258 78.9226C87.6652 84.549 87.7124 92.2958 87.7439 100.779C87.807 117.779 87.8062 137.622 87.5565 149.316C87.3298 159.928 84.5586 166.46 80.8368 170.326C77.1832 174.122 71.5457 176.455 63.1625 176.455C55.2071 176.455 49.5626 173.776 45.83 169.609C42.004 165.338 39.4545 158.672 39.4545 149.481C39.4545 145.213 35.9949 141.753 31.7272 141.753C27.4596 141.753 23.9999 145.213 23.9999 149.481C23.9999 161.445 27.3404 172.13 34.3182 179.92C41.3893 187.815 51.4624 191.909 63.1625 191.909C74.4349 191.909 84.605 188.696 91.9711 181.044C99.2691 173.462 102.73 162.644 103.007 149.646C103.262 137.728 103.261 117.695 103.198 100.721C103.167 92.2172 103.119 84.4527 103.08 78.8145C103.06 75.9951 103.043 73.707 103.03 72.1232C103.023 71.3313 103.018 70.7155 103.015 70.2974C103.013 70.0883 103.011 69.9287 103.01 69.8212L103.009 69.6586C103.009 69.6586 103.009 69.6579 95.3145 69.727L103.009 69.6586C102.971 65.3911 99.48 61.962 95.2126 62.0003Z" fill="black"/>
</svg>
