<svg width="128" height="256" viewBox="0 0 128 256" fill="none" xmlns="http://www.w3.org/2000/svg">
<path fill-rule="evenodd" clip-rule="evenodd" d="M100.336 65.5251C103.761 68.0704 104.475 72.9107 101.93 76.3363L64.2937 126.991L102.007 179.589C104.494 183.057 103.698 187.884 100.23 190.371C96.7617 192.858 91.9342 192.062 89.4474 188.594L48.4474 131.412C46.4894 128.681 46.5206 124.998 48.5247 122.301L89.5247 67.1192C92.0699 63.6936 96.9102 62.9799 100.336 65.5251ZM31.7273 64.0005C35.9949 64.0005 39.4545 67.4601 39.4545 71.7278L39.4545 184.091C39.4545 188.359 35.9949 191.819 31.7273 191.819C27.4596 191.819 24 188.359 24 184.091L24 71.7278C24 67.4601 27.4596 64.0005 31.7273 64.0005Z" fill="black"/>
</svg>
