<svg width="128" height="256" viewBox="0 0 128 256" fill="none" xmlns="http://www.w3.org/2000/svg">
<path fill-rule="evenodd" clip-rule="evenodd" d="M16 70.7273C16 66.4596 19.4596 63 23.7273 63H39.7273C43.5613 63 46.8155 65.8112 47.3725 69.6046L63.13 176.909H64.4523L80.8155 69.5628C81.3909 65.7884 84.6365 63 88.4545 63H104.091C108.359 63 111.818 66.4596 111.818 70.7273V184.636C111.818 188.904 108.359 192.364 104.091 192.364C99.8232 192.364 96.3636 188.904 96.3636 184.636V78.4545H95.0932L78.7299 185.801C78.1546 189.575 74.9089 192.364 71.0909 192.364H56.4545C52.6205 192.364 49.3663 189.552 48.8093 185.759L33.0519 78.4545H31.4545V184.636C31.4545 188.904 27.9949 192.364 23.7273 192.364C19.4596 192.364 16 188.904 16 184.636V70.7273Z" fill="black"/>
</svg>
