<svg width="128" height="256" viewBox="0 0 128 256" fill="none" xmlns="http://www.w3.org/2000/svg">
<path fill-rule="evenodd" clip-rule="evenodd" d="M23.2326 66.2941C24.6842 64.8261 26.6628 64 28.7273 64H47.4545C50.8617 64 53.8668 66.2316 54.8518 69.4932L87.3746 177.182H92.0909V71.7273C92.0909 67.4596 95.5505 64 99.8182 64C104.086 64 107.545 67.4596 107.545 71.7273V184.909C107.545 189.177 104.086 192.636 99.8182 192.636H81.6364C78.2292 192.636 75.2241 190.405 74.2391 187.143L41.7163 79.4545H36.5419L37.7268 184.822C37.7748 189.09 34.3543 192.588 30.0869 192.636C25.8195 192.684 22.3212 189.263 22.2732 184.996L21.0005 71.8142C20.9773 69.7498 21.7811 67.762 23.2326 66.2941Z" fill="black"/>
</svg>
