<svg width="128" height="256" viewBox="0 0 128 256" fill="none" xmlns="http://www.w3.org/2000/svg">
<path fill-rule="evenodd" clip-rule="evenodd" d="M29.2225 78.4641C35.9888 68.9885 47.0648 62 63.8634 62C70.1006 62 74.9385 62.3002 80.4611 64.2325C84.4893 65.642 86.6122 70.05 85.2028 74.0782C83.7933 78.1064 79.3853 80.2293 75.3571 78.8199C72.3294 77.7605 69.5874 77.4545 63.8634 77.4545C52.0257 77.4545 45.6471 82.057 41.7997 87.445C37.6329 93.2804 35.9526 100.782 35.3726 106.748C34.153 119.294 34.1393 135.925 35.3866 152.323C35.5391 154.328 35.8961 157.078 36.9251 159.307C38.7135 163.182 37.0221 167.773 33.1473 169.562C29.2724 171.35 24.6814 169.658 22.893 165.784C20.6493 160.922 20.156 155.854 19.9766 153.495C18.6792 136.439 18.6651 118.888 19.9906 105.252C20.6832 98.1274 22.7757 87.4924 29.2225 78.4641ZM94.8046 85.1462C98.6902 83.3814 103.271 85.1007 105.036 88.9864C106.463 92.1282 107.367 94.7267 107.901 97.5396C108.39 100.111 108.521 102.661 108.659 105.357L108.671 105.604C109.551 122.745 109.362 133.725 108.677 153.181C108.279 164.485 104.333 174.963 96.4308 182.627C88.5024 190.316 77.3334 194.455 63.8634 194.455C57.0315 194.455 52.3301 193.573 46.5226 191.526C42.4976 190.108 40.3845 185.695 41.8029 181.67C43.2214 177.645 47.6342 175.532 51.6592 176.95C55.8517 178.427 58.818 179 63.8634 179C74.1207 179 81.1563 175.911 85.6712 171.533C90.2126 167.128 92.9481 160.697 93.2319 152.637C93.9103 133.366 94.0841 122.891 93.2372 106.396C93.0806 103.345 92.9871 101.838 92.7187 100.426C92.4813 99.1766 92.0581 97.7854 90.9644 95.3772C89.1996 91.4916 90.9189 86.911 94.8046 85.1462Z" fill="black"/>
</svg>
