<svg width="128" height="256" viewBox="0 0 128 256" fill="none" xmlns="http://www.w3.org/2000/svg">
<path fill-rule="evenodd" clip-rule="evenodd" d="M22 71.7273C22 67.4596 25.4596 64 29.7273 64H65.5454C76.6198 64 86.6535 67.4309 94.0171 74.0478C101.453 80.7302 105.636 90.2034 105.636 101.091C105.636 110.999 103.296 120.896 96.3872 128.329C89.3795 135.869 78.9183 139.545 65.5454 139.545H37.4545V184.727C37.4545 188.995 33.9949 192.455 29.7273 192.455C25.4596 192.455 22 188.995 22 184.727V131.818C22 127.551 25.4596 124.091 29.7273 124.091H65.5454C76.1726 124.091 81.8933 121.222 85.0673 117.807C88.3406 114.286 90.1818 108.819 90.1818 101.091C90.1818 94.3421 87.6829 89.1334 83.6874 85.5431C79.6192 81.8873 73.4711 79.4545 65.5454 79.4545H29.7273C25.4596 79.4545 22 75.9949 22 71.7273Z" fill="black"/>
</svg>
