<svg width="128" height="256" viewBox="0 0 128 256" fill="none" xmlns="http://www.w3.org/2000/svg">
<path fill-rule="evenodd" clip-rule="evenodd" d="M29.2225 78.4641C35.9888 68.9885 47.0648 62 63.8634 62C70.1006 62 74.9385 62.3002 80.4611 64.2325C84.4893 65.642 86.6122 70.05 85.2028 74.0782C83.7933 78.1064 79.3853 80.2293 75.3571 78.8199C72.3294 77.7605 69.5874 77.4545 63.8634 77.4545C52.0257 77.4545 45.6471 82.057 41.7997 87.445C37.6329 93.2804 35.9526 100.782 35.3726 106.748C34.153 119.294 34.1393 135.925 35.3866 152.323C35.4379 152.998 35.6143 154.329 35.964 155.881C36.317 157.447 36.777 158.926 37.2888 160.035C39.0772 163.909 37.3858 168.5 33.5109 170.289C29.636 172.077 25.0451 170.386 23.2567 166.511C21.1047 161.848 20.1842 156.225 19.9766 153.495C18.6792 136.439 18.6651 118.888 19.9906 105.252C20.6832 98.1274 22.7757 87.4924 29.2225 78.4641ZM94.2591 84.9644C98.1448 83.1996 102.725 84.9189 104.49 88.8046C105.817 91.7259 106.84 94.2598 107.531 97.0063C108.228 99.7786 108.51 102.455 108.671 105.604C109.551 122.745 109.362 133.725 108.677 153.181C108.347 162.554 105.577 171.36 100.135 178.464L102.926 181.459C105.835 184.582 105.663 189.471 102.541 192.381C99.4183 195.29 94.5288 195.117 91.6194 191.995L88.4354 188.578C81.5856 192.429 73.2877 194.455 63.8634 194.455C57.0315 194.455 52.3301 193.573 46.5226 191.526C42.4976 190.108 40.3845 185.695 41.8029 181.67C43.2214 177.645 47.6342 175.532 51.6592 176.95C55.8517 178.427 58.818 179 63.8634 179C69.219 179 73.6963 178.158 77.3951 176.73L69.2557 167.995C66.3464 164.873 66.519 159.983 69.6412 157.074C72.7635 154.165 77.653 154.337 80.5624 157.459L89.3435 166.883C91.6686 163 93.0358 158.208 93.2319 152.637C93.9103 133.366 94.0841 122.891 93.2372 106.396C93.0992 103.707 92.8909 102.158 92.5435 100.777C92.1897 99.3708 91.6128 97.8241 90.4189 95.1954C88.6541 91.3098 90.3734 86.7292 94.2591 84.9644Z" fill="black"/>
</svg>
