<svg width="128" height="256" viewBox="0 0 128 256" fill="none" xmlns="http://www.w3.org/2000/svg">
<path fill-rule="evenodd" clip-rule="evenodd" d="M22 71.7273C22 67.4596 25.4596 64 29.7273 64H65.5454C76.6198 64 86.6535 67.4309 94.0171 74.0478C101.453 80.7302 105.636 90.2034 105.636 101.091C105.636 110.999 103.296 120.896 96.3872 128.329C95.7371 129.028 95.0572 129.695 94.348 130.328C94.9625 130.862 95.5427 131.458 96.068 132.125C98.2325 134.87 99.322 138.125 99.9498 141.27C100.582 144.437 100.857 148.09 100.981 152.089C101.129 156.852 101.071 162.785 101.002 169.789C100.958 174.328 100.909 179.316 100.909 184.727C100.909 188.995 97.4495 192.455 93.1818 192.455C88.9142 192.455 85.4545 188.995 85.4545 184.727C85.4545 178.831 85.5066 173.669 85.5525 169.109C85.6197 162.447 85.6739 157.072 85.5339 152.57C85.4183 148.853 85.1753 146.205 84.7942 144.295C84.5188 142.915 84.2261 142.216 84.0605 141.903C83.8617 141.795 83.2945 141.496 82.1076 141.144C80.2578 140.596 77.8714 140.198 75.3204 139.937C72.8179 139.681 70.4028 139.581 68.5949 139.547C67.9681 139.535 67.4222 139.531 66.9802 139.531C66.5058 139.541 66.0275 139.545 65.5454 139.545H37.4545V184.727C37.4545 188.995 33.9949 192.455 29.7273 192.455C25.4596 192.455 22 188.995 22 184.727V131.818C22 127.551 25.4596 124.091 29.7273 124.091H65.4546C65.5017 124.09 65.5618 124.089 65.6342 124.087C65.8077 124.084 66.0525 124.081 66.3597 124.079C66.5014 124.078 66.6566 124.077 66.8245 124.077C76.6361 123.855 82.023 121.083 85.0673 117.807C88.3406 114.286 90.1818 108.819 90.1818 101.091C90.1818 94.3421 87.6829 89.1334 83.6874 85.5431C79.6192 81.8873 73.4711 79.4545 65.5454 79.4545H29.7273C25.4596 79.4545 22 75.9949 22 71.7273Z" fill="black"/>
</svg>
