<svg width="128" height="256" viewBox="0 0 128 256" fill="none" xmlns="http://www.w3.org/2000/svg">
<path fill-rule="evenodd" clip-rule="evenodd" d="M32.6964 72.0308C40.3109 65.264 51.7123 62 66.9543 62C83.2979 62 94.9106 67.8965 102.256 77.0164C109.366 85.8436 111.773 96.8052 111.773 106C111.773 110.268 108.313 113.727 104.045 113.727C99.7776 113.727 96.318 110.268 96.318 106C96.318 99.1948 94.4969 92.0201 90.2205 86.7109C86.1799 81.6944 79.2471 77.4545 66.9543 77.4545C53.5601 77.4545 46.5752 80.3724 42.9625 83.5829C39.5438 86.6209 37.9091 91.0371 37.9091 97.2727C37.9091 102.025 40.1201 106.628 45.4916 110.707C51.0227 114.908 59.7674 118.372 71.8363 119.976C85.5883 121.804 95.71 125.9 102.295 132.921C109.015 140.085 110.863 149.012 110.863 157.727C110.863 178.815 90.5579 193.909 66.9543 193.909C43.3574 193.909 17 177.547 17 149.273C17 145.005 20.4596 141.545 24.7273 141.545C28.9949 141.545 32.4545 145.005 32.4545 149.273C32.4545 166.089 48.6418 178.455 66.9543 178.455C85.2602 178.455 95.4089 167.367 95.4089 157.727C95.4089 151.079 94.0077 146.676 91.0229 143.494C87.9036 140.168 81.8662 136.9 69.8001 135.296C56.0507 133.469 44.4773 129.343 36.1448 123.015C27.6526 116.566 22.4545 107.702 22.4545 97.2727C22.4545 88.3265 24.8879 78.97 32.6964 72.0308Z" fill="black"/>
</svg>
