<svg width="128" height="256" viewBox="0 0 128 256" fill="none" xmlns="http://www.w3.org/2000/svg">
<path fill-rule="evenodd" clip-rule="evenodd" d="M27.7273 63C31.9949 63 35.4545 66.4596 35.4545 70.7273V147.545C35.4545 157.047 38.2022 164.519 42.8754 169.546C47.4643 174.482 54.6945 177.909 65.4545 177.909C75.2901 177.909 81.5432 173.71 85.5935 168.056C89.868 162.09 91.8182 154.231 91.8182 147.545V70.7273C91.8182 66.4596 95.2778 63 99.5454 63C103.813 63 107.273 66.4596 107.273 70.7273V147.545C107.273 156.769 104.677 167.955 98.1565 177.057C91.4113 186.472 80.619 193.364 65.4545 193.364C51.2145 193.364 39.5811 188.7 31.5565 180.068C23.616 171.527 20 159.953 20 147.545V70.7273C20 66.4596 23.4596 63 27.7273 63Z" fill="black"/>
</svg>
