<svg width="128" height="256" viewBox="0 0 128 256" fill="none" xmlns="http://www.w3.org/2000/svg">
<path fill-rule="evenodd" clip-rule="evenodd" d="M110.355 64.0431C114.599 64.4896 117.677 68.2923 117.231 72.5365L105.322 185.718C104.908 189.651 101.592 192.637 97.6369 192.637H82.9097C78.9268 192.637 75.5964 189.61 75.2174 185.645L65.0676 79.4552H63.0526L53.332 185.614C52.9678 189.592 49.6316 192.637 45.6369 192.637H30.0915C26.1228 192.637 22.7993 189.631 22.4029 185.682L11.0392 72.4998C10.6129 68.2535 13.7096 64.4656 17.9559 64.0393C22.2022 63.6129 25.9901 66.7096 26.4165 70.9559L37.0818 177.182H38.5849L48.3055 71.0233C48.6697 67.0453 52.0059 64.0006 56.0006 64.0006H72.0915C76.0743 64.0006 79.4047 67.0279 79.7837 70.9927L89.9336 177.182H90.6801L101.861 70.9193C102.308 66.6751 106.11 63.5965 110.355 64.0431Z" fill="black"/>
</svg>
