<svg width="128" height="256" viewBox="0 0 128 256" fill="none" xmlns="http://www.w3.org/2000/svg">
<path fill-rule="evenodd" clip-rule="evenodd" d="M26.189 64.8601C29.9826 62.9051 34.6427 64.3955 36.5977 68.189L63.44 120.274L66.1319 120.274L92.0883 68.2777C93.9944 64.4594 98.6349 62.9092 102.453 64.8153C106.272 66.7214 107.822 71.3619 105.916 75.1803L79.5504 127.996L105.911 180.632C107.822 184.448 106.278 189.091 102.462 191.002C98.6463 192.913 94.0038 191.369 92.0927 187.553L66.1388 135.729L63.433 135.729L36.593 187.641C34.633 191.432 29.9709 192.917 26.18 190.957C22.389 188.997 20.9048 184.335 22.8648 180.544L50.0332 127.996L22.8601 75.2687C20.9051 71.4752 22.3955 66.8151 26.189 64.8601Z" fill="black"/>
</svg>
