<svg width="128" height="256" viewBox="0 0 128 256" fill="none" xmlns="http://www.w3.org/2000/svg">
<path fill-rule="evenodd" clip-rule="evenodd" d="M23.4545 70.7273C23.4545 66.4596 26.9142 63 31.1818 63H102.273C106.54 63 110 66.4596 110 70.7273V83.9091C110 85.7622 109.334 87.5536 108.124 88.9567L33.4545 175.509V176.727H102.273C106.54 176.727 110 180.187 110 184.455C110 188.722 106.54 192.182 102.273 192.182H25.7273C21.4596 192.182 18 188.722 18 184.455V172.636C18 170.783 18.6659 168.992 19.8764 167.589L94.5454 81.0365V78.4545H31.1818C26.9142 78.4545 23.4545 74.9949 23.4545 70.7273Z" fill="black"/>
</svg>
